<?xml version="1.0" encoding="utf-8"?>
<!-- Svg Vector Icons : http://www.onlinewebfonts.com/icon -->
<!DOCTYPE svg PUBLIC "-//W3C//DTD SVG 1.1//EN" "http://www.w3.org/Graphics/SVG/1.1/DTD/svg11.dtd">
<svg version="1.1" xmlns="http://www.w3.org/2000/svg" xmlns:xlink="http://www.w3.org/1999/xlink" x="0px" y="0px" viewBox="0 0 1000 1000" enable-background="new 0 0 1000 1000" xml:space="preserve">
<metadata> Svg Vector Icons : http://www.onlinewebfonts.com/icon </metadata>
<g><g><path d="M840.9,739.2H789C731.2,694,664.7,569,604.9,393.2c62-36.9,101.2-104.6,101.2-177.1C706.1,102.5,613.6,10,500,10c-113.6,0-206.1,92.5-206.1,206.1c0,72.5,39.1,140.2,101.1,177.1C335.3,569,268.9,693.9,210.9,739.2h-51.9H33.7V990h932.7V739.2H840.9z M334.8,216.1c0-91.1,74.1-165.1,165.1-165.1c91.1,0,165.1,74.1,165.1,165.1c0,61.6-35.4,118.6-90.4,146.7H425.2C370.3,334.7,334.8,277.7,334.8,216.1z M434.6,403.8h130.8C618,559.2,675.3,675.2,730.7,739.2H269.2C324.7,675.2,382,559.2,434.6,403.8z M925.4,949H74.6V780.2h84.5h65.2h551.5h65.2h84.5L925.4,949L925.4,949z"/></g><g></g><g></g><g></g><g></g><g></g><g></g><g></g><g></g><g></g><g></g><g></g><g></g><g></g><g></g><g></g></g>
</svg>